<mxfile host="app.diagrams.net" modified="2023-07-09T01:17:40.585Z" agent="Mozilla/5.0 (Windows NT 6.1; WOW64) AppleWebKit/537.36 (KHTML, like Gecko) Chrome/105.0.0.0 Safari/537.36" etag="Wf98xD5gqRZE-qxW5hC2" version="21.6.1" type="github" pages="2">
  <diagram name="webpack-flow" id="fdhdS6sps6q3KNE02XbI">
    <mxGraphModel dx="1050" dy="493" grid="0" gridSize="10" guides="1" tooltips="1" connect="1" arrows="0" fold="1" page="1" pageScale="1" pageWidth="1169" pageHeight="1654" math="0" shadow="0">
      <root>
        <mxCell id="0" />
        <mxCell id="1" parent="0" />
        <mxCell id="yfMfYIu69uaod5VJtc__-11" value="" style="edgeStyle=orthogonalEdgeStyle;rounded=0;orthogonalLoop=1;jettySize=auto;html=1;" edge="1" parent="1" source="yfMfYIu69uaod5VJtc__-12" target="yfMfYIu69uaod5VJtc__-15">
          <mxGeometry relative="1" as="geometry" />
        </mxCell>
        <mxCell id="yfMfYIu69uaod5VJtc__-12" value="&lt;font style=&quot;font-size: 14px;&quot;&gt;开始编译&lt;/font&gt;" style="rounded=1;whiteSpace=wrap;html=1;" vertex="1" parent="1">
          <mxGeometry x="502" y="68" width="89" height="30" as="geometry" />
        </mxCell>
        <mxCell id="yfMfYIu69uaod5VJtc__-13" value="" style="edgeStyle=orthogonalEdgeStyle;rounded=0;orthogonalLoop=1;jettySize=auto;html=1;" edge="1" parent="1" source="yfMfYIu69uaod5VJtc__-14" target="yfMfYIu69uaod5VJtc__-16">
          <mxGeometry relative="1" as="geometry" />
        </mxCell>
        <mxCell id="yfMfYIu69uaod5VJtc__-14" value="&lt;font style=&quot;font-size: 14px;&quot;&gt;合并配置&lt;/font&gt;" style="rounded=1;whiteSpace=wrap;html=1;" vertex="1" parent="1">
          <mxGeometry x="502" y="130" width="89" height="30" as="geometry" />
        </mxCell>
        <mxCell id="yfMfYIu69uaod5VJtc__-15" value="&lt;font style=&quot;font-size: 14px;&quot;&gt;run方法&lt;/font&gt;" style="rounded=1;whiteSpace=wrap;html=1;strokeColor=none;" vertex="1" parent="1">
          <mxGeometry x="635" y="68" width="89" height="30" as="geometry" />
        </mxCell>
        <mxCell id="yfMfYIu69uaod5VJtc__-16" value="" style="rounded=1;whiteSpace=wrap;html=1;" vertex="1" parent="1">
          <mxGeometry x="671" y="130" width="89" height="30" as="geometry" />
        </mxCell>
        <mxCell id="yfMfYIu69uaod5VJtc__-20" value="" style="edgeStyle=orthogonalEdgeStyle;rounded=0;orthogonalLoop=1;jettySize=auto;html=1;" edge="1" parent="1" source="yfMfYIu69uaod5VJtc__-17" target="yfMfYIu69uaod5VJtc__-19">
          <mxGeometry relative="1" as="geometry" />
        </mxCell>
        <mxCell id="yfMfYIu69uaod5VJtc__-17" value="&lt;span style=&quot;font-size: 14px;&quot;&gt;创建compiler&lt;/span&gt;" style="rounded=1;whiteSpace=wrap;html=1;" vertex="1" parent="1">
          <mxGeometry x="502" y="188" width="89" height="30" as="geometry" />
        </mxCell>
        <mxCell id="yfMfYIu69uaod5VJtc__-18" value="&lt;span style=&quot;font-size: 14px;&quot;&gt;设置文件环境&lt;/span&gt;" style="rounded=1;whiteSpace=wrap;html=1;" vertex="1" parent="1">
          <mxGeometry x="502" y="246" width="89" height="30" as="geometry" />
        </mxCell>
        <mxCell id="yfMfYIu69uaod5VJtc__-19" value="&lt;div style=&quot;line-height: 19px;&quot;&gt;&lt;div style=&quot;font-family: Consolas, &amp;quot;Courier New&amp;quot;, monospace; font-size: 14px; line-height: 19px;&quot;&gt;&lt;font style=&quot;background-color: rgb(255, 255, 255);&quot; color=&quot;#000033&quot;&gt;NodeEnvironmentPlugin&lt;/font&gt;&lt;/div&gt;&lt;/div&gt;" style="rounded=1;whiteSpace=wrap;html=1;" vertex="1" parent="1">
          <mxGeometry x="671" y="188" width="179" height="30" as="geometry" />
        </mxCell>
        <mxCell id="yfMfYIu69uaod5VJtc__-23" value="" style="edgeStyle=orthogonalEdgeStyle;rounded=0;orthogonalLoop=1;jettySize=auto;html=1;" edge="1" parent="1" source="yfMfYIu69uaod5VJtc__-21" target="yfMfYIu69uaod5VJtc__-22">
          <mxGeometry relative="1" as="geometry" />
        </mxCell>
        <mxCell id="yfMfYIu69uaod5VJtc__-21" value="&lt;span style=&quot;font-size: 14px;&quot;&gt;配置插件&lt;/span&gt;" style="rounded=1;whiteSpace=wrap;html=1;" vertex="1" parent="1">
          <mxGeometry x="502" y="310" width="89" height="30" as="geometry" />
        </mxCell>
        <mxCell id="yfMfYIu69uaod5VJtc__-22" value="&lt;span style=&quot;font-size: 14px;&quot;&gt;循环遍历生成执行插件的apply方法，并注入complier&lt;/span&gt;" style="rounded=1;whiteSpace=wrap;html=1;strokeColor=none;" vertex="1" parent="1">
          <mxGeometry x="671" y="310" width="196" height="30" as="geometry" />
        </mxCell>
        <mxCell id="yfMfYIu69uaod5VJtc__-27" value="" style="edgeStyle=orthogonalEdgeStyle;rounded=0;orthogonalLoop=1;jettySize=auto;html=1;strokeColor=default;" edge="1" parent="1" source="yfMfYIu69uaod5VJtc__-24" target="yfMfYIu69uaod5VJtc__-26">
          <mxGeometry relative="1" as="geometry" />
        </mxCell>
        <mxCell id="yfMfYIu69uaod5VJtc__-24" value="&lt;div style=&quot;color: rgb(212, 212, 212); background-color: rgb(30, 30, 30); font-family: Consolas, &amp;quot;Courier New&amp;quot;, monospace; font-size: 14px; line-height: 19px;&quot;&gt;EntryPlugin.make&lt;/div&gt;" style="rounded=1;whiteSpace=wrap;html=1;strokeColor=default;" vertex="1" parent="1">
          <mxGeometry x="456" y="380" width="176" height="30" as="geometry" />
        </mxCell>
        <mxCell id="yfMfYIu69uaod5VJtc__-25" value="&lt;div style=&quot;color: rgb(212, 212, 212); background-color: rgb(30, 30, 30); font-family: Consolas, &amp;quot;Courier New&amp;quot;, monospace; font-size: 14px; line-height: 19px;&quot;&gt;&lt;div style=&quot;line-height: 19px;&quot;&gt;compilation.&lt;span style=&quot;color: #dcdcaa;&quot;&gt;addEntry&lt;/span&gt;&lt;/div&gt;&lt;/div&gt;" style="rounded=1;whiteSpace=wrap;html=1;strokeColor=default;" vertex="1" parent="1">
          <mxGeometry x="459" y="445" width="176" height="30" as="geometry" />
        </mxCell>
        <mxCell id="yfMfYIu69uaod5VJtc__-26" value="&lt;div style=&quot;font-family: Consolas, &amp;quot;Courier New&amp;quot;, monospace; font-size: 14px; line-height: 19px;&quot;&gt;&lt;span style=&quot;background-color: rgb(255, 255, 255);&quot;&gt;&lt;font color=&quot;#000033&quot;&gt;注册make&lt;/font&gt;&lt;/span&gt;&lt;/div&gt;" style="rounded=1;whiteSpace=wrap;html=1;strokeColor=none;" vertex="1" parent="1">
          <mxGeometry x="712" y="380" width="176" height="30" as="geometry" />
        </mxCell>
        <mxCell id="yfMfYIu69uaod5VJtc__-28" value="&lt;div style=&quot;color: rgb(212, 212, 212); background-color: rgb(30, 30, 30); font-family: Consolas, &amp;quot;Courier New&amp;quot;, monospace; font-weight: normal; font-size: 14px; line-height: 19px;&quot;&gt;&lt;div&gt;&lt;span style=&quot;color: #569cd6;&quot;&gt;class&lt;/span&gt;&lt;span style=&quot;color: #d4d4d4;&quot;&gt; &lt;/span&gt;&lt;span style=&quot;color: #4ec9b0;&quot;&gt;Compiler&lt;/span&gt;&lt;span style=&quot;color: #d4d4d4;&quot;&gt; &lt;/span&gt;&lt;span style=&quot;color: #569cd6;&quot;&gt;extends&lt;/span&gt;&lt;span style=&quot;color: #d4d4d4;&quot;&gt; &lt;/span&gt;&lt;span style=&quot;color: #4ec9b0;&quot;&gt;Tapable&lt;/span&gt;&lt;span style=&quot;color: #d4d4d4;&quot;&gt; {&lt;/span&gt;&lt;/div&gt;&lt;div&gt;&lt;span style=&quot;color: #d4d4d4;&quot;&gt;&amp;nbsp; &amp;nbsp; &lt;/span&gt;&lt;span style=&quot;color: #569cd6;&quot;&gt;constructor&lt;/span&gt;&lt;span style=&quot;color: #d4d4d4;&quot;&gt;(&lt;/span&gt;&lt;span style=&quot;color: #9cdcfe;&quot;&gt;context&lt;/span&gt;&lt;span style=&quot;color: #d4d4d4;&quot;&gt;) {&lt;/span&gt;&lt;/div&gt;&lt;div&gt;&lt;span style=&quot;color: #d4d4d4;&quot;&gt;&amp;nbsp; &amp;nbsp; &amp;nbsp; &amp;nbsp; &lt;/span&gt;&lt;span style=&quot;color: #569cd6;&quot;&gt;super&lt;/span&gt;&lt;span style=&quot;color: #d4d4d4;&quot;&gt;();&lt;/span&gt;&lt;/div&gt;&lt;div&gt;&lt;span style=&quot;color: #d4d4d4;&quot;&gt;&amp;nbsp; &amp;nbsp; &amp;nbsp; &amp;nbsp; &lt;/span&gt;&lt;span style=&quot;color: #569cd6;&quot;&gt;this&lt;/span&gt;&lt;span style=&quot;color: #d4d4d4;&quot;&gt;.&lt;/span&gt;&lt;span style=&quot;color: #9cdcfe;&quot;&gt;context&lt;/span&gt;&lt;span style=&quot;color: #d4d4d4;&quot;&gt; = &lt;/span&gt;&lt;span style=&quot;color: #9cdcfe;&quot;&gt;context&lt;/span&gt;&lt;span style=&quot;color: #d4d4d4;&quot;&gt;;&lt;/span&gt;&lt;/div&gt;&lt;div&gt;&lt;span style=&quot;color: #d4d4d4;&quot;&gt;&amp;nbsp; &amp;nbsp; &amp;nbsp; &amp;nbsp; &lt;/span&gt;&lt;span style=&quot;color: #569cd6;&quot;&gt;this&lt;/span&gt;&lt;span style=&quot;color: #d4d4d4;&quot;&gt;.&lt;/span&gt;&lt;span style=&quot;color: #9cdcfe;&quot;&gt;hooks&lt;/span&gt;&lt;span style=&quot;color: #d4d4d4;&quot;&gt; = {&lt;/span&gt;&lt;/div&gt;&lt;div&gt;&lt;span style=&quot;color: #d4d4d4;&quot;&gt;&amp;nbsp; &amp;nbsp; &amp;nbsp; &amp;nbsp; &amp;nbsp; &amp;nbsp; &lt;/span&gt;&lt;span style=&quot;color: #6a9955;&quot;&gt;//context项目根目录的绝对路径 C:\aproject\zhufeng202009webpack\8.my&lt;/span&gt;&lt;/div&gt;&lt;div&gt;&lt;span style=&quot;color: #d4d4d4;&quot;&gt;&amp;nbsp; &amp;nbsp; &amp;nbsp; &amp;nbsp; &amp;nbsp; &amp;nbsp; &lt;/span&gt;&lt;span style=&quot;color: #6a9955;&quot;&gt;//entry入口文件路径 ./src/index.js&lt;/span&gt;&lt;/div&gt;&lt;div&gt;&lt;span style=&quot;color: #d4d4d4;&quot;&gt;&amp;nbsp; &amp;nbsp; &amp;nbsp; &amp;nbsp; &amp;nbsp; &amp;nbsp; &lt;/span&gt;&lt;span style=&quot;color: #9cdcfe;&quot;&gt;entryOption&lt;/span&gt;&lt;span style=&quot;color: #9cdcfe;&quot;&gt;:&lt;/span&gt;&lt;span style=&quot;color: #d4d4d4;&quot;&gt; &lt;/span&gt;&lt;span style=&quot;color: #569cd6;&quot;&gt;new&lt;/span&gt;&lt;span style=&quot;color: #d4d4d4;&quot;&gt; &lt;/span&gt;&lt;span style=&quot;color: #4ec9b0;&quot;&gt;SyncBailHook&lt;/span&gt;&lt;span style=&quot;color: #d4d4d4;&quot;&gt;([&lt;/span&gt;&lt;span style=&quot;color: #ce9178;&quot;&gt;&quot;context&quot;&lt;/span&gt;&lt;span style=&quot;color: #d4d4d4;&quot;&gt;, &lt;/span&gt;&lt;span style=&quot;color: #ce9178;&quot;&gt;&quot;entry&quot;&lt;/span&gt;&lt;span style=&quot;color: #d4d4d4;&quot;&gt;]),&lt;/span&gt;&lt;/div&gt;&lt;div&gt;&lt;span style=&quot;color: #d4d4d4;&quot;&gt;&amp;nbsp; &amp;nbsp; &amp;nbsp; &amp;nbsp; &amp;nbsp; &amp;nbsp; &lt;/span&gt;&lt;span style=&quot;color: #9cdcfe;&quot;&gt;beforeRun&lt;/span&gt;&lt;span style=&quot;color: #9cdcfe;&quot;&gt;:&lt;/span&gt;&lt;span style=&quot;color: #d4d4d4;&quot;&gt; &lt;/span&gt;&lt;span style=&quot;color: #569cd6;&quot;&gt;new&lt;/span&gt;&lt;span style=&quot;color: #d4d4d4;&quot;&gt; &lt;/span&gt;&lt;span style=&quot;color: #4ec9b0;&quot;&gt;AsyncSeriesHook&lt;/span&gt;&lt;span style=&quot;color: #d4d4d4;&quot;&gt;([&lt;/span&gt;&lt;span style=&quot;color: #ce9178;&quot;&gt;&quot;compiler&quot;&lt;/span&gt;&lt;span style=&quot;color: #d4d4d4;&quot;&gt;]),&lt;/span&gt;&lt;span style=&quot;color: #6a9955;&quot;&gt;//运行前&lt;/span&gt;&lt;/div&gt;&lt;div&gt;&lt;span style=&quot;color: #d4d4d4;&quot;&gt;&amp;nbsp; &amp;nbsp; &amp;nbsp; &amp;nbsp; &amp;nbsp; &amp;nbsp; &lt;/span&gt;&lt;span style=&quot;color: #9cdcfe;&quot;&gt;run&lt;/span&gt;&lt;span style=&quot;color: #9cdcfe;&quot;&gt;:&lt;/span&gt;&lt;span style=&quot;color: #d4d4d4;&quot;&gt; &lt;/span&gt;&lt;span style=&quot;color: #569cd6;&quot;&gt;new&lt;/span&gt;&lt;span style=&quot;color: #d4d4d4;&quot;&gt; &lt;/span&gt;&lt;span style=&quot;color: #4ec9b0;&quot;&gt;AsyncSeriesHook&lt;/span&gt;&lt;span style=&quot;color: #d4d4d4;&quot;&gt;([&lt;/span&gt;&lt;span style=&quot;color: #ce9178;&quot;&gt;&quot;compiler&quot;&lt;/span&gt;&lt;span style=&quot;color: #d4d4d4;&quot;&gt;]),&lt;/span&gt;&lt;span style=&quot;color: #6a9955;&quot;&gt;//运行&lt;/span&gt;&lt;/div&gt;&lt;div&gt;&lt;span style=&quot;color: #d4d4d4;&quot;&gt;&amp;nbsp; &amp;nbsp; &amp;nbsp; &amp;nbsp; &amp;nbsp; &amp;nbsp; &lt;/span&gt;&lt;span style=&quot;color: #9cdcfe;&quot;&gt;beforeCompile&lt;/span&gt;&lt;span style=&quot;color: #9cdcfe;&quot;&gt;:&lt;/span&gt;&lt;span style=&quot;color: #d4d4d4;&quot;&gt; &lt;/span&gt;&lt;span style=&quot;color: #569cd6;&quot;&gt;new&lt;/span&gt;&lt;span style=&quot;color: #d4d4d4;&quot;&gt; &lt;/span&gt;&lt;span style=&quot;color: #4ec9b0;&quot;&gt;AsyncSeriesHook&lt;/span&gt;&lt;span style=&quot;color: #d4d4d4;&quot;&gt;([&lt;/span&gt;&lt;span style=&quot;color: #ce9178;&quot;&gt;&quot;params&quot;&lt;/span&gt;&lt;span style=&quot;color: #d4d4d4;&quot;&gt;]),&lt;/span&gt;&lt;span style=&quot;color: #6a9955;&quot;&gt;//编译前&lt;/span&gt;&lt;/div&gt;&lt;div&gt;&lt;span style=&quot;color: #d4d4d4;&quot;&gt;&amp;nbsp; &amp;nbsp; &amp;nbsp; &amp;nbsp; &amp;nbsp; &amp;nbsp; &lt;/span&gt;&lt;span style=&quot;color: #9cdcfe;&quot;&gt;compile&lt;/span&gt;&lt;span style=&quot;color: #9cdcfe;&quot;&gt;:&lt;/span&gt;&lt;span style=&quot;color: #d4d4d4;&quot;&gt; &lt;/span&gt;&lt;span style=&quot;color: #569cd6;&quot;&gt;new&lt;/span&gt;&lt;span style=&quot;color: #d4d4d4;&quot;&gt; &lt;/span&gt;&lt;span style=&quot;color: #4ec9b0;&quot;&gt;SyncHook&lt;/span&gt;&lt;span style=&quot;color: #d4d4d4;&quot;&gt;([&lt;/span&gt;&lt;span style=&quot;color: #ce9178;&quot;&gt;&quot;params&quot;&lt;/span&gt;&lt;span style=&quot;color: #d4d4d4;&quot;&gt;]),&lt;/span&gt;&lt;span style=&quot;color: #6a9955;&quot;&gt;//编译&lt;/span&gt;&lt;/div&gt;&lt;div&gt;&lt;span style=&quot;color: #d4d4d4;&quot;&gt;&amp;nbsp; &amp;nbsp; &amp;nbsp; &amp;nbsp; &amp;nbsp; &amp;nbsp; &lt;/span&gt;&lt;span style=&quot;color: #9cdcfe;&quot;&gt;make&lt;/span&gt;&lt;span style=&quot;color: #9cdcfe;&quot;&gt;:&lt;/span&gt;&lt;span style=&quot;color: #d4d4d4;&quot;&gt; &lt;/span&gt;&lt;span style=&quot;color: #569cd6;&quot;&gt;new&lt;/span&gt;&lt;span style=&quot;color: #d4d4d4;&quot;&gt; &lt;/span&gt;&lt;span style=&quot;color: #4ec9b0;&quot;&gt;AsyncParallelHook&lt;/span&gt;&lt;span style=&quot;color: #d4d4d4;&quot;&gt;([&lt;/span&gt;&lt;span style=&quot;color: #ce9178;&quot;&gt;&quot;compilation&quot;&lt;/span&gt;&lt;span style=&quot;color: #d4d4d4;&quot;&gt;]),&lt;/span&gt;&lt;span style=&quot;color: #6a9955;&quot;&gt;//make构建//TODO&lt;/span&gt;&lt;/div&gt;&lt;div&gt;&lt;span style=&quot;color: #d4d4d4;&quot;&gt;&amp;nbsp; &amp;nbsp; &amp;nbsp; &amp;nbsp; &amp;nbsp; &amp;nbsp; &lt;/span&gt;&lt;span style=&quot;color: #9cdcfe;&quot;&gt;thisCompilation&lt;/span&gt;&lt;span style=&quot;color: #9cdcfe;&quot;&gt;:&lt;/span&gt;&lt;span style=&quot;color: #d4d4d4;&quot;&gt; &lt;/span&gt;&lt;span style=&quot;color: #569cd6;&quot;&gt;new&lt;/span&gt;&lt;span style=&quot;color: #d4d4d4;&quot;&gt; &lt;/span&gt;&lt;span style=&quot;color: #4ec9b0;&quot;&gt;SyncHook&lt;/span&gt;&lt;span style=&quot;color: #d4d4d4;&quot;&gt;([&lt;/span&gt;&lt;span style=&quot;color: #ce9178;&quot;&gt;&quot;compilation&quot;&lt;/span&gt;&lt;span style=&quot;color: #d4d4d4;&quot;&gt;, &lt;/span&gt;&lt;span style=&quot;color: #ce9178;&quot;&gt;&quot;params&quot;&lt;/span&gt;&lt;span style=&quot;color: #d4d4d4;&quot;&gt;]),&lt;/span&gt;&lt;span style=&quot;color: #6a9955;&quot;&gt;//开始一次新的编译&lt;/span&gt;&lt;/div&gt;&lt;div&gt;&lt;span style=&quot;color: #d4d4d4;&quot;&gt;&amp;nbsp; &amp;nbsp; &amp;nbsp; &amp;nbsp; &amp;nbsp; &amp;nbsp; &lt;/span&gt;&lt;span style=&quot;color: #9cdcfe;&quot;&gt;compilation&lt;/span&gt;&lt;span style=&quot;color: #9cdcfe;&quot;&gt;:&lt;/span&gt;&lt;span style=&quot;color: #d4d4d4;&quot;&gt; &lt;/span&gt;&lt;span style=&quot;color: #569cd6;&quot;&gt;new&lt;/span&gt;&lt;span style=&quot;color: #d4d4d4;&quot;&gt; &lt;/span&gt;&lt;span style=&quot;color: #4ec9b0;&quot;&gt;SyncHook&lt;/span&gt;&lt;span style=&quot;color: #d4d4d4;&quot;&gt;([&lt;/span&gt;&lt;span style=&quot;color: #ce9178;&quot;&gt;&quot;compilation&quot;&lt;/span&gt;&lt;span style=&quot;color: #d4d4d4;&quot;&gt;, &lt;/span&gt;&lt;span style=&quot;color: #ce9178;&quot;&gt;&quot;params&quot;&lt;/span&gt;&lt;span style=&quot;color: #d4d4d4;&quot;&gt;]),&lt;/span&gt;&lt;span style=&quot;color: #6a9955;&quot;&gt;//创建完成一个新的compilation&lt;/span&gt;&lt;/div&gt;&lt;div&gt;&lt;span style=&quot;color: #d4d4d4;&quot;&gt;&amp;nbsp; &amp;nbsp; &amp;nbsp; &amp;nbsp; &amp;nbsp; &amp;nbsp; &lt;/span&gt;&lt;span style=&quot;color: #9cdcfe;&quot;&gt;afterCompile&lt;/span&gt;&lt;span style=&quot;color: #9cdcfe;&quot;&gt;:&lt;/span&gt;&lt;span style=&quot;color: #d4d4d4;&quot;&gt; &lt;/span&gt;&lt;span style=&quot;color: #569cd6;&quot;&gt;new&lt;/span&gt;&lt;span style=&quot;color: #d4d4d4;&quot;&gt; &lt;/span&gt;&lt;span style=&quot;color: #4ec9b0;&quot;&gt;AsyncSeriesHook&lt;/span&gt;&lt;span style=&quot;color: #d4d4d4;&quot;&gt;([&lt;/span&gt;&lt;span style=&quot;color: #ce9178;&quot;&gt;&quot;compilation&quot;&lt;/span&gt;&lt;span style=&quot;color: #d4d4d4;&quot;&gt;]),&lt;/span&gt;&lt;span style=&quot;color: #6a9955;&quot;&gt;//编译完成&lt;/span&gt;&lt;/div&gt;&lt;div&gt;&lt;span style=&quot;color: #d4d4d4;&quot;&gt;&amp;nbsp; &amp;nbsp; &amp;nbsp; &amp;nbsp; &amp;nbsp; &amp;nbsp; &lt;/span&gt;&lt;span style=&quot;color: #9cdcfe;&quot;&gt;emit&lt;/span&gt;&lt;span style=&quot;color: #9cdcfe;&quot;&gt;:&lt;/span&gt;&lt;span style=&quot;color: #d4d4d4;&quot;&gt; &lt;/span&gt;&lt;span style=&quot;color: #569cd6;&quot;&gt;new&lt;/span&gt;&lt;span style=&quot;color: #d4d4d4;&quot;&gt; &lt;/span&gt;&lt;span style=&quot;color: #4ec9b0;&quot;&gt;AsyncSeriesHook&lt;/span&gt;&lt;span style=&quot;color: #d4d4d4;&quot;&gt;([&lt;/span&gt;&lt;span style=&quot;color: #ce9178;&quot;&gt;&quot;compilation&quot;&lt;/span&gt;&lt;span style=&quot;color: #d4d4d4;&quot;&gt;]),&lt;/span&gt;&lt;span style=&quot;color: #6a9955;&quot;&gt;// 发射或者说写入&lt;/span&gt;&lt;/div&gt;&lt;div&gt;&lt;span style=&quot;color: #d4d4d4;&quot;&gt;&amp;nbsp; &amp;nbsp; &amp;nbsp; &amp;nbsp; &amp;nbsp; &amp;nbsp; &lt;/span&gt;&lt;span style=&quot;color: #9cdcfe;&quot;&gt;done&lt;/span&gt;&lt;span style=&quot;color: #9cdcfe;&quot;&gt;:&lt;/span&gt;&lt;span style=&quot;color: #d4d4d4;&quot;&gt; &lt;/span&gt;&lt;span style=&quot;color: #569cd6;&quot;&gt;new&lt;/span&gt;&lt;span style=&quot;color: #d4d4d4;&quot;&gt; &lt;/span&gt;&lt;span style=&quot;color: #4ec9b0;&quot;&gt;AsyncSeriesHook&lt;/span&gt;&lt;span style=&quot;color: #d4d4d4;&quot;&gt;([&lt;/span&gt;&lt;span style=&quot;color: #ce9178;&quot;&gt;&quot;stats&quot;&lt;/span&gt;&lt;span style=&quot;color: #d4d4d4;&quot;&gt;])&lt;/span&gt;&lt;span style=&quot;color: #6a9955;&quot;&gt;//所有的编译全部都完成&lt;/span&gt;&lt;/div&gt;&lt;div&gt;&lt;span style=&quot;color: #d4d4d4;&quot;&gt;&amp;nbsp; &amp;nbsp; &amp;nbsp; &amp;nbsp; }&lt;/span&gt;&lt;/div&gt;&lt;div&gt;&lt;span style=&quot;color: #d4d4d4;&quot;&gt;&amp;nbsp; &amp;nbsp; }&lt;/span&gt;&lt;/div&gt;&lt;/div&gt;" style="text;whiteSpace=wrap;html=1;" vertex="1" parent="1">
          <mxGeometry x="949" y="25" width="902" height="535" as="geometry" />
        </mxCell>
      </root>
    </mxGraphModel>
  </diagram>
  <diagram id="eV4McjKStu1JCMHGYiAI" name="tapable">
    <mxGraphModel dx="1050" dy="493" grid="0" gridSize="10" guides="1" tooltips="1" connect="1" arrows="1" fold="1" page="1" pageScale="1" pageWidth="1169" pageHeight="1654" math="0" shadow="0">
      <root>
        <mxCell id="0" />
        <mxCell id="1" parent="0" />
      </root>
    </mxGraphModel>
  </diagram>
</mxfile>
